<?xml version="1.0" encoding="UTF-8" standalone="no"?>
<!-- Created with Inkscape (http://www.inkscape.org/) -->

<svg
   xmlns:dc="http://purl.org/dc/elements/1.1/"
   xmlns:cc="http://creativecommons.org/ns#"
   xmlns:rdf="http://www.w3.org/1999/02/22-rdf-syntax-ns#"
   xmlns:svg="http://www.w3.org/2000/svg"
   xmlns="http://www.w3.org/2000/svg"
   xmlns:inkscape="http://www.inkscape.org/namespaces/inkscape"
   version="1.1"
   width="374.73749"
   height="122.3125"
   id="svg2"
   xml:space="preserve"><metadata
     id="metadata8"><rdf:RDF><cc:Work
         rdf:about=""><dc:format>image/svg+xml</dc:format><dc:type
           rdf:resource="http://purl.org/dc/dcmitype/StillImage" /></cc:Work></rdf:RDF></metadata><defs
     id="defs6"><clipPath
       id="clipPath18"><path
         d="M 0,978.504 0,0 l 2997.93,0 0,978.504 -2997.93,0 z"
         inkscape:connector-curvature="0"
         id="path20" /></clipPath></defs><g
     transform="matrix(1.25,0,0,-1.25,0,122.3125)"
     id="g10"><g
       transform="scale(0.1,0.1)"
       id="g12"><g
         id="g14"><g
           clip-path="url(#clipPath18)"
           id="g16"><path
             d="m 1172.67,656.621 0.01,0 55.06,231.387 57.47,0 -78.05,-314.168 -67.61,0 -53.63,213.066 -54.11,-213.066 -67.326,0 -78.058,314.168 59.859,0 55.755,-230.891 58.43,230.891 53.3,0 58.9,-231.387"
             inkscape:connector-curvature="0"
             id="path22"
             style="fill:#141419;fill-opacity:1;fill-rule:nonzero;stroke:none" /><path
             d="m 1548.78,648.641 c 3.35,-26.43 22.51,-39.895 51.72,-39.895 21.07,0 38.3,7.481 38.3,23.438 0,14.961 -9.57,21.445 -30.64,24.933 l -33.52,5.988 c -45.01,7.481 -69.91,24.934 -69.91,65.825 0,41.89 33.99,70.812 87.62,70.812 58.43,0 93.38,-27.426 97.21,-76.297 l -47.4,-1.996 c -3.83,24.934 -20.11,37.403 -50.29,37.403 -20.58,0 -33.99,-9.477 -33.99,-24.438 0,-11.969 7.66,-18.949 22.99,-21.441 l 40.22,-6.985 c 44.54,-7.476 70.87,-26.926 70.87,-68.316 0,-44.883 -37.35,-69.817 -91.94,-69.817 -55.08,0 -97.21,24.934 -101.04,78.793 l 49.8,1.993"
             inkscape:connector-curvature="0"
             id="path24"
             style="fill:#141419;fill-opacity:1;fill-rule:nonzero;stroke:none" /><path
             d="m 2719.03,573.84 57.4688,0 0,314.168 -57.4688,0 0,-314.168 z"
             inkscape:connector-curvature="0"
             id="path26"
             style="fill:#141419;fill-opacity:1;fill-rule:nonzero;stroke:none" /><path
             d="m 2615.4,669.09 c 0,-35.406 -22.99,-59.344 -53.15,-59.344 -18.2,0 -29.21,8.977 -29.21,23.938 0,21.941 17.71,26.429 42.61,31.914 l 39.75,7.32 0,-3.828 z m 70.87,-58.844 c -9.1,0 -14.85,5.484 -14.85,16.953 l 0,87.77 c 0,57.847 -35.91,84.777 -90.5,84.777 -56.03,0 -89.06,-31.418 -96.25,-76.301 l 52.2,-4.984 c 4.78,21.441 17.71,36.402 41.66,36.402 24.42,0 36.87,-14.961 36.87,-39.394 l 0,-6.836 -57.95,-10.121 c -47.88,-9.973 -80.44,-27.426 -80.44,-69.317 0,-37.898 26.81,-60.84 70.87,-60.84 31.12,0 65.23,16.083 71.83,31.192 4.03,-16.34 20.59,-30.692 44.53,-30.692 12.27,0 21.38,1.813 28.75,5.067 l 0,37.066 c -2.26,-0.449 -4.49,-0.742 -6.72,-0.742"
             inkscape:connector-curvature="0"
             id="path28"
             style="fill:#141419;fill-opacity:1;fill-rule:nonzero;stroke:none" /><path
             d="m 1814.01,615.73 c -17.24,0 -25.38,8.481 -25.38,27.43 l 0,108.711 45.89,0 0,41.891 -45.89,0 0,60.84 -39.87,0 c 0,0 -0.61,-19.188 -3.56,-29.922 -2.96,-10.735 -8.76,-31.418 -29.36,-34.91 l -14.36,-2.493 0,-35.406 30.16,0 0,-122.176 c 0,-46.879 27.3,-61.84 59.86,-61.84 17.67,0 31.26,3.329 43.02,9.207 l 0,42.727 c -6.99,-2.437 -13.84,-4.059 -20.51,-4.059"
             inkscape:connector-curvature="0"
             id="path30"
             style="fill:#141419;fill-opacity:1;fill-rule:nonzero;stroke:none" /><path
             d="m 2205.4,798.414 c -29.21,0 -50.62,-20.242 -58.9,-39.84 l 0,35.188 -57.47,0 0,-219.918 57.47,0 0,108.711 c 0,39.894 20.11,61.836 49.8,61.836 9.41,0 16.81,-1.504 24.05,-4.407 l 12.07,51.278 c -6.37,4.367 -15.67,7.152 -27.02,7.152"
             inkscape:connector-curvature="0"
             id="path32"
             style="fill:#141419;fill-opacity:1;fill-rule:nonzero;stroke:none" /><path
             d="m 1374.27,755.859 c 32.08,0 46.93,-24.433 48.84,-49.867 l -101.52,0 c 5.28,27.43 21.08,49.867 52.68,49.867 z m 3.83,-142.621 c -31.13,0 -55.55,22.938 -57.46,55.352 l 158.5,0 0,21.445 c 0,59.844 -35.43,109.711 -104.39,109.711 -63.21,0 -110.62,-49.867 -110.62,-119.187 0,-69.317 46.93,-112.704 112.05,-112.704 51.11,0 86.39,25.829 99.43,69.872 l -45.85,9.132 c -8.59,-22.324 -24.93,-33.621 -51.66,-33.621"
             inkscape:connector-curvature="0"
             id="path34"
             style="fill:#141419;fill-opacity:1;fill-rule:nonzero;stroke:none" /><path
             d="m 1956.22,755.859 c 32.08,0 46.93,-24.433 48.84,-49.867 l -101.52,0 c 5.28,27.43 21.08,49.867 52.68,49.867 z m 3.83,-142.621 c -31.13,0 -55.55,22.938 -57.46,55.352 l 158.5,0 0,21.445 c 0,59.844 -35.43,109.711 -104.39,109.711 -63.21,0 -110.62,-49.867 -110.62,-119.187 0,-69.317 46.93,-112.704 112.05,-112.704 51.11,0 86.39,25.829 99.43,69.872 l -45.85,9.132 c -8.59,-22.324 -24.93,-33.621 -51.66,-33.621"
             inkscape:connector-curvature="0"
             id="path36"
             style="fill:#141419;fill-opacity:1;fill-rule:nonzero;stroke:none" /><path
             d="m 2854.75,648.641 c 3.35,-26.43 22.51,-39.895 51.72,-39.895 21.07,0 38.31,7.481 38.31,23.438 0,14.961 -9.57,21.445 -30.65,24.933 l -33.52,5.988 c -45.01,7.481 -69.91,24.934 -69.91,65.825 0,41.89 34,70.812 87.63,70.812 58.42,0 93.38,-27.426 97.21,-76.297 l -47.4,-1.996 c -3.84,24.934 -20.12,37.403 -50.29,37.403 -20.59,0 -34,-9.477 -34,-24.438 0,-11.969 7.66,-18.949 22.99,-21.441 l 40.22,-6.985 c 44.54,-7.476 70.87,-26.926 70.87,-68.316 0,-44.883 -37.34,-69.817 -91.94,-69.817 -55.07,0 -97.21,24.934 -101.04,78.793 l 49.8,1.993"
             inkscape:connector-curvature="0"
             id="path38"
             style="fill:#141419;fill-opacity:1;fill-rule:nonzero;stroke:none" /><path
             d="m 2344.96,614.469 0.07,0.054 c -35.94,0 -54.63,27.446 -54.63,68.868 0,41.918 18.69,69.367 54.63,69.367 l -0.07,-0.055 c 32.59,0 56.07,-24.953 56.07,-64.879 l 0,-8.48 c 0,-40.422 -23.48,-64.875 -56.07,-64.875 z m 105,273.527 -55.14,0 0,-116.879 c -15.83,17.778 -38.09,28.551 -66.71,28.551 l -0.33,0 c -62.78,0 -95.36,-51.402 -95.36,-116.277 0,-64.864 32.57,-115.75 95.31,-115.778 28.52,0.008 50.92,10.02 67.09,26.75 l 0,-20.761 57.5,0 0,314.394 -2.36,0"
             inkscape:connector-curvature="0"
             id="path40"
             style="fill:#141419;fill-opacity:1;fill-rule:nonzero;stroke:none" /><path
             d="m 642.699,81.168 0,64.355 -26.203,0 0,16.985 71.711,0 0,-16.985 -26.559,0 0,-64.355 -18.949,0"
             inkscape:connector-curvature="0"
             id="path42"
             style="fill:#141419;fill-opacity:1;fill-rule:nonzero;stroke:none" /><path
             d="m 395.352,97.418 c -11.985,0 -19.731,9.582 -19.731,24.418 0,14.836 7.746,24.422 19.731,24.422 7.543,0 13.195,-3.395 16.457,-9.953 l 17.648,6.035 c -5.527,13.805 -17.555,21.633 -34.105,21.633 -22.747,0 -39.258,-17.723 -39.258,-42.137 0,-24.4141 16.511,-42.1407 39.258,-42.1407 16.148,0 27.988,7.418 33.687,20.5707 l -17.605,6.242 c -3.192,-5.875 -8.735,-9.09 -16.082,-9.09"
             inkscape:connector-curvature="0"
             id="path44"
             style="fill:#141419;fill-opacity:1;fill-rule:nonzero;stroke:none" /><path
             d="m 584.637,338.457 c -70.871,0 -91.703,62.668 -110.078,117.961 -19.829,59.637 -35.067,95.848 -79.438,95.848 -44.367,0 -59.601,-36.211 -79.414,-95.844 -18.375,-55.293 -39.199,-117.965 -110.07,-117.965 -70.875,0 -91.699,62.672 -110.0745,117.965 C 75.75,516.055 60.5156,552.266 16.1484,552.266 7.23438,552.266 0,559.5 0,568.418 c 0,8.922 7.23438,16.152 16.1484,16.152 70.875,0 91.6996,-62.672 110.0746,-117.965 19.812,-59.632 35.047,-95.843 79.414,-95.843 44.363,0 59.597,36.211 79.414,95.843 18.371,55.293 39.199,117.965 110.07,117.965 70.879,0 91.715,-62.672 110.09,-117.965 19.828,-59.636 35.062,-95.843 79.426,-95.843 44.375,0 59.609,36.211 79.437,95.847 18.383,55.293 39.211,117.961 110.09,117.961 8.918,0 16.152,-7.23 16.152,-16.152 0,-8.918 -7.234,-16.152 -16.152,-16.152 -44.371,0 -59.609,-36.211 -79.437,-95.848 C 676.344,401.125 655.52,338.457 584.637,338.457"
             inkscape:connector-curvature="0"
             id="path46"
             style="fill:#141419;fill-opacity:1;fill-rule:nonzero;stroke:none" /><path
             d="m 525.457,254.34 c -10.742,-2.078 -18.945,-0.766 -25.348,3.441 -19.617,12.903 -23.129,49.407 -28.761,85.434 l 0.031,0.015 c -8.156,52.18 -18.309,117.114 -76.176,117.114 -0.031,0.004 -0.058,0.004 -0.066,0 -57.867,0 -68.035,-64.938 -76.192,-117.114 -5.633,-36.023 -9.148,-72.527 -28.761,-85.429 -6.403,-4.207 -14.61,-5.52 -25.348,-3.446 -35.727,7.305 -39.953,56.813 -42.313,131.508 -2.437,76.657 -5.191,163.539 -85.406,163.539 -8.918,0 -16.148,-7.234 -16.148,-16.152 0,-8.922 7.23,-16.152 16.148,-16.152 45.625,0 50.504,-49.965 53.11,-132.258 2.226,-69.918 4.734,-149.168 68.308,-162.164 5.574,-1.082 10.926,-1.621 16.043,-1.621 12.945,0 24.399,3.449 34.164,10.308 28.535,20.039 35.442,64.188 42.117,106.879 8.739,55.871 16.079,89.801 44.293,89.801 0.02,0 0.02,0 0.036,0 28.195,0 35.535,-33.934 44.273,-89.805 6.68,-42.691 13.586,-86.836 42.109,-106.875 13.645,-9.574 30.535,-12.496 50.383,-8.656 63.41,12.965 65.918,92.215 68.133,162.137 2.609,82.289 7.488,132.254 53.109,132.254 8.918,0 16.153,7.23 16.153,16.152 0,8.918 -7.235,16.152 -16.153,16.152 -80.211,0 -82.965,-86.882 -85.394,-163.535 -2.371,-74.695 -6.598,-124.207 -42.149,-131.476 l -0.195,-0.051"
             inkscape:connector-curvature="0"
             id="path48"
             style="fill:#141419;fill-opacity:1;fill-rule:nonzero;stroke:none" /><path
             d="m 549.793,51.9141 c 0.031,-5.1407 -1.981,-10 -5.648,-13.6914 -3.739,-3.7618 -8.715,-5.8555 -14.043,-5.918 l 0,0.0117 c -10.856,0 -19.692,8.832 -19.692,19.6914 0,3.8008 1.078,7.4844 3.09,10.5977 l 14.828,22.8086 15.727,-19.0313 2.281,-3.2851 c 2.238,-3.1993 3.43,-7.0625 3.457,-11.1836 z m -289.578,-19.5977 0,-0.0117 c -5.328,0.0625 -10.309,2.1562 -14.043,5.918 -3.668,3.6914 -5.68,8.5507 -5.649,13.6992 0.024,4.1133 1.219,7.9843 3.457,11.1992 l 2.274,3.2539 15.726,19.0352 14.801,-22.75 c 2.043,-3.168 3.121,-6.8516 3.121,-10.6524 0,-10.8594 -8.836,-19.6914 -19.687,-19.6914 z M 669.703,333.625 c -7.484,4.844 -17.492,2.707 -22.336,-4.785 L 525.156,139.969 408.855,280.703 l -7.671,9.262 c -1.434,1.73 -3.602,2.836 -6.028,2.836 -2.433,0 -4.605,-1.113 -6.039,-2.856 L 383.676,283.387 265.16,139.965 142.949,328.84 c -4.847,7.492 -14.844,9.629 -22.34,4.785 -7.484,-4.844 -9.625,-14.844 -4.781,-22.332 l 127.754,-197.441 -22.648,-27.4106 -3.45,-4.8437 c -6,-8.6055 -9.203,-18.8086 -9.261,-29.4961 -0.082,-13.8047 5.261,-26.8204 15.039,-36.6563 C 233.168,5.48438 246.367,0 260.449,0 l 0,0.0117188 C 289.008,0.140625 312.203,23.4141 312.203,52.0078 c 0,10.0195 -2.859,19.7578 -8.308,28.211 L 283.559,111.523 395.156,246.566 506.75,111.527 486.383,80.1602 c -5.414,-8.3946 -8.274,-18.1329 -8.274,-28.1524 0,-28.5937 23.196,-51.867175 51.754,-51.9960812 L 529.863,0 c 14.082,0 27.285,5.48438 37.192,15.4453 9.773,9.8359 15.121,22.8516 15.039,36.6485 -0.059,10.707 -3.262,20.914 -9.254,29.4765 l -26.106,32.2847 127.75,197.434 c 4.848,7.492 2.707,17.492 -4.781,22.336"
             inkscape:connector-curvature="0"
             id="path50"
             style="fill:#141419;fill-opacity:1;fill-rule:nonzero;stroke:none" /><path
             d="M 406.234,733.34 541.102,541.691 696.363,786.816 c 4.77,7.532 14.739,9.782 22.282,5 7.539,-4.769 9.777,-14.75 5.003,-22.285 L 553.98,501.668 l -5.195,-8.25 c -1.387,-2.188 -3.824,-3.637 -6.601,-3.637 -2.622,0 -4.942,1.289 -6.36,3.27 l -5.691,8.086 -135,191.84 -137.879,-196.004 -2.727,-3.934 c -1.418,-1.98 -3.734,-3.269 -6.355,-3.269 -2.777,0 -5.219,1.449 -6.602,3.632 l -2.679,4.223 -172.2269,271.906 c -4.7696,7.535 -2.5313,17.516 5.0039,22.285 7.5625,4.782 17.5156,2.532 22.2812,-5 l 155.2618,-245.121 134.344,190.961 5.125,7.258 c 1.402,2.078 3.781,3.445 6.476,3.445 2.672,0 5.028,-1.339 6.438,-3.382 l 4.64,-6.637"
             inkscape:connector-curvature="0"
             id="path52"
             style="fill:#141419;fill-opacity:1;fill-rule:nonzero;stroke:none" /><path
             d="M 404.195,969.121 538.16,670.453 605.176,881.277 c 2.695,8.508 11.785,13.192 20.285,10.5 8.5,-2.703 13.199,-11.785 10.496,-20.289 l -85.555,-269.152 -0.886,-2.805 c -0.996,-3.168 -3.957,-5.465 -7.454,-5.465 -3.117,0 -5.808,1.825 -7.062,4.465 l -1.398,3.141 -138.711,309.262 -137.266,-306.11 -2.855,-6.402 c -1.254,-2.641 -3.946,-4.465 -7.063,-4.465 -3.496,0 -6.457,2.297 -7.453,5.465 l -1.672,5.39 -84.238,267.079 c -2.68,8.507 2.043,17.578 10.551,20.261 8.476,2.68 17.582,-2.035 20.261,-10.547 l 66.551,-211.015 134.031,298.875 1.953,4.344 c 1.204,2.761 3.961,4.695 7.168,4.695 3.239,0 6.012,-1.965 7.2,-4.77 l 2.136,-4.613"
             inkscape:connector-curvature="0"
             id="path54"
             style="fill:#141419;fill-opacity:1;fill-rule:nonzero;stroke:none" /><path
             d="m 120.957,111.598 9.742,25.886 9.739,-25.886 -19.481,0 z m 18.738,50.996 -17.996,0 -31.5349,-81.426 19.3399,0 5.441,14.4609 31.504,0 5.442,-14.4609 19.339,0 -31.535,81.426"
             inkscape:connector-curvature="0"
             id="path56"
             style="fill:#141419;fill-opacity:1;fill-rule:nonzero;stroke:none" /><path
             d="m 950.801,370.535 c -22.227,0 -36.606,-16.172 -36.606,-41.34 0,-25.175 14.379,-41.347 36.606,-41.347 22.222,0 36.441,16.172 36.441,41.347 0,25.168 -14.219,41.34 -36.441,41.34 z m 0,-94.785 c -30.071,0 -51.153,21.738 -51.153,53.445 0,31.7 21.082,53.438 51.153,53.438 29.902,0 51.149,-21.738 51.149,-53.438 0,-31.707 -21.247,-53.445 -51.149,-53.445"
             inkscape:connector-curvature="0"
             id="path58"
             style="fill:#141419;fill-opacity:1;fill-rule:nonzero;stroke:none" /><path
             d="m 1022.9,302.555 c 1.3,-10.946 8.98,-16.836 21.24,-16.836 9.48,0 16.51,3.437 16.51,10.625 0,6.699 -4.74,8.984 -13.57,10.625 l -12.09,2.121 c -13.4,2.129 -21.41,7.851 -21.41,20.105 0,13.067 10.95,21.895 27.46,21.895 18.95,0 30.07,-8.828 31.37,-25.332 l -10.95,-0.653 c -1.63,10.946 -8.33,16.016 -20.42,16.016 -8.99,0 -14.88,-4.082 -14.88,-10.625 0,-5.715 3.6,-8.652 10.95,-9.961 l 13.4,-2.129 c 14.38,-2.453 22.88,-7.844 22.88,-20.754 0,-14.218 -12.58,-21.902 -29.25,-21.902 -17.81,0 -31.38,8.34 -32.68,25.984 l 11.44,0.821"
             inkscape:connector-curvature="0"
             id="path60"
             style="fill:#141419;fill-opacity:1;fill-rule:nonzero;stroke:none" /><path
             d="m 1087.46,277.711 13.5703,0 0,102.961 -13.5703,0 0,-102.961 z"
             inkscape:connector-curvature="0"
             id="path62"
             style="fill:#141419;fill-opacity:1;fill-rule:nonzero;stroke:none" /><path
             d="m 1151.2,286.207 c 14.54,0 22.72,11.281 22.72,27.129 0,16.016 -8.18,27.129 -22.72,27.129 -14.38,0 -22.39,-11.113 -22.39,-27.129 0,-15.848 8.01,-27.129 22.39,-27.129 z m 0,-10.457 c -20.91,0 -36.28,15.359 -36.28,37.586 0,22.226 15.37,37.754 36.28,37.754 21.08,0 36.61,-15.528 36.61,-37.754 0,-22.227 -15.53,-37.586 -36.61,-37.586"
             inkscape:connector-curvature="0"
             id="path64"
             style="fill:#141419;fill-opacity:1;fill-rule:nonzero;stroke:none" /><path
             d="m 1238.33,315.301 c 0.81,-18.789 13.72,-28.438 31.05,-28.438 15.36,0 25,6.543 25,17.813 0,9.48 -6.21,14.062 -19.61,16.668 l -20.43,3.926 c -15.2,2.941 -25.66,11.113 -25.66,27.128 0,17.981 14.22,30.235 36.78,30.235 25.82,0 40.68,-13.731 40.85,-36.934 l -12.91,-0.652 c -0.49,16.992 -10.79,26.641 -27.78,26.641 -14.88,0 -23.21,-7.032 -23.21,-18.469 0,-10.137 6.7,-13.407 18.63,-15.692 l 18.63,-3.593 c 18.79,-3.594 28.28,-11.77 28.28,-28.274 0,-18.953 -16.35,-29.91 -38.57,-29.91 -25.34,0 -43.8,13.895 -43.8,38.73 l 12.75,0.821"
             inkscape:connector-curvature="0"
             id="path66"
             style="fill:#141419;fill-opacity:1;fill-rule:nonzero;stroke:none" /><path
             d="m 1355.69,351.09 c 20.91,0 32.19,-14.051 33.66,-31.211 l -11.93,-0.82 c -1.14,12.589 -8.66,21.086 -21.9,21.086 -13.4,0 -22.55,-10.293 -22.55,-26.809 0,-16.504 9.15,-26.797 22.55,-26.797 13.24,0 20.76,8.984 21.9,21.574 l 11.93,-1.144 c -1.47,-17.324 -12.75,-31.219 -33.66,-31.219 -21.58,0 -36.61,14.871 -36.61,37.586 0,22.715 15.03,37.754 36.61,37.754"
             inkscape:connector-curvature="0"
             id="path68"
             style="fill:#141419;fill-opacity:1;fill-rule:nonzero;stroke:none" /><path
             d="m 1416.82,277.711 -13.56,0 0,102.961 13.56,0 0,-44.289 c 3.43,8.664 13.07,14.707 23.7,14.707 18.63,0 26.15,-12.422 26.15,-29.09 l 0,-44.289 -13.57,0 0,43.144 c 0,11.934 -5.72,19.454 -16.99,19.454 -10.79,0 -19.29,-8.504 -19.29,-21.571 l 0,-41.027"
             inkscape:connector-curvature="0"
             id="path70"
             style="fill:#141419;fill-opacity:1;fill-rule:nonzero;stroke:none" /><path
             d="m 1516.04,286.207 c 14.54,0 22.71,11.281 22.71,27.129 0,16.016 -8.17,27.129 -22.71,27.129 -14.39,0 -22.4,-11.113 -22.4,-27.129 0,-15.848 8.01,-27.129 22.4,-27.129 z m 0,-10.457 c -20.92,0 -36.28,15.359 -36.28,37.586 0,22.226 15.36,37.754 36.28,37.754 21.08,0 36.6,-15.528 36.6,-37.754 0,-22.227 -15.52,-37.586 -36.6,-37.586"
             inkscape:connector-curvature="0"
             id="path72"
             style="fill:#141419;fill-opacity:1;fill-rule:nonzero;stroke:none" /><path
             d="m 1598.91,286.207 c 14.54,0 22.71,11.281 22.71,27.129 0,16.016 -8.17,27.129 -22.71,27.129 -14.39,0 -22.39,-11.113 -22.39,-27.129 0,-15.848 8,-27.129 22.39,-27.129 z m 0,-10.457 c -20.92,0 -36.28,15.359 -36.28,37.586 0,22.226 15.36,37.754 36.28,37.754 21.07,0 36.6,-15.528 36.6,-37.754 0,-22.227 -15.53,-37.586 -36.6,-37.586"
             inkscape:connector-curvature="0"
             id="path74"
             style="fill:#141419;fill-opacity:1;fill-rule:nonzero;stroke:none" /><path
             d="m 1649.58,277.711 13.5703,0 0,102.961 -13.5703,0 0,-102.961 z"
             inkscape:connector-curvature="0"
             id="path76"
             style="fill:#141419;fill-opacity:1;fill-rule:nonzero;stroke:none" /><path
             d="m 1742.75,286.207 c 14.55,0 22.71,11.281 22.71,27.129 0,16.016 -8.16,27.129 -22.71,27.129 -14.38,0 -22.39,-11.113 -22.39,-27.129 0,-15.848 8.01,-27.129 22.39,-27.129 z m 0,-10.457 c -20.92,0 -36.28,15.359 -36.28,37.586 0,22.226 15.36,37.754 36.28,37.754 21.08,0 36.61,-15.528 36.61,-37.754 0,-22.227 -15.53,-37.586 -36.61,-37.586"
             inkscape:connector-curvature="0"
             id="path78"
             style="fill:#141419;fill-opacity:1;fill-rule:nonzero;stroke:none" /><path
             d="m 1785.26,339.324 0,9.805 10.94,0 0,8.34 c 0,15.195 8.67,25.164 23.7,25.164 12.26,0 19.13,-5.555 22.39,-16.348 l -9.31,-3.262 c -1.81,5.559 -5.89,9.805 -12.42,9.805 -7.52,0 -10.95,-5.398 -10.95,-13.894 l 0,-9.805 20.1,0 0,-9.805 -20.1,0 0,-61.613 -13.41,0 0,61.613 -10.94,0"
             inkscape:connector-curvature="0"
             id="path80"
             style="fill:#141419;fill-opacity:1;fill-rule:nonzero;stroke:none" /><path
             d="m 1892.47,319.227 37.92,0 -18.8,45.75 -0.65,0 -18.47,-45.75 z m 27.13,61.445 42.82,-102.961 -15.04,0 -12.42,30.234 -46.89,0 -12.1,-30.234 -13.89,0 42,102.961 15.52,0"
             inkscape:connector-curvature="0"
             id="path82"
             style="fill:#141419;fill-opacity:1;fill-rule:nonzero;stroke:none" /><path
             d="m 2016.38,335.562 c -3.93,2.129 -6.71,2.942 -11.11,2.942 -10.31,0 -17.98,-9.309 -17.98,-23.039 l 0,-37.754 -13.57,0 0,71.418 13.57,0 0,-14.543 c 2.61,8.176 9.97,16.504 20.26,16.504 4.41,0 7.68,-1.141 10.13,-3.27 l -1.3,-12.258"
             inkscape:connector-curvature="0"
             id="path84"
             style="fill:#141419;fill-opacity:1;fill-rule:nonzero;stroke:none" /><path
             d="m 2032.24,339.324 -10.79,0 0,7.352 4.58,0.82 c 6.7,1.309 8.17,4.57 9.8,11.438 l 2.13,9.968 7.68,0 0,-19.773 20.09,0 0,-9.805 -20.09,0 0,-43.301 c 0,-6.378 2.61,-9.316 8.82,-9.316 4.58,0 9.32,1.953 13.4,4.246 l 0,-9.148 c -5.23,-3.926 -10.46,-6.055 -18.3,-6.055 -10.13,0 -17.32,4.746 -17.32,18.633 l 0,44.941"
             inkscape:connector-curvature="0"
             id="path86"
             style="fill:#141419;fill-opacity:1;fill-rule:nonzero;stroke:none" /><path
             d="m 2086.02,302.555 c 1.31,-10.946 8.98,-16.836 21.24,-16.836 9.48,0 16.5,3.437 16.5,10.625 0,6.699 -4.73,8.984 -13.56,10.625 l -12.09,2.121 c -13.4,2.129 -21.41,7.851 -21.41,20.105 0,13.067 10.95,21.895 27.45,21.895 18.96,0 30.07,-8.828 31.38,-25.332 l -10.95,-0.653 c -1.63,10.946 -8.33,16.016 -20.43,16.016 -8.98,0 -14.87,-4.082 -14.87,-10.625 0,-5.715 3.6,-8.652 10.96,-9.961 l 13.39,-2.129 c 14.38,-2.453 22.89,-7.844 22.89,-20.754 0,-14.218 -12.59,-21.902 -29.26,-21.902 -17.81,0 -31.38,8.34 -32.69,25.984 l 11.45,0.821"
             inkscape:connector-curvature="0"
             id="path88"
             style="fill:#141419;fill-opacity:1;fill-rule:nonzero;stroke:none" /><path
             d="m 2147.81,294.059 16.34,0 0,-16.016 c 0,-11.445 -3.26,-18.145 -16.34,-18.309 l 0,8.008 c 6.05,0.496 7.68,2.781 7.68,9.969 l -7.68,0 0,16.348"
             inkscape:connector-curvature="0"
             id="path90"
             style="fill:#141419;fill-opacity:1;fill-rule:nonzero;stroke:none" /><path
             d="m 950.148,186.48 c 29.414,0 46.082,-18.132 48.047,-44.609 l -13.73,-0.652 c -1.145,18.953 -13.07,33.172 -34.317,33.172 -20.918,0 -35.953,-16.016 -35.953,-41.348 0,-25.332 15.035,-41.3477 35.953,-41.3477 21.247,0 33.172,14.2187 34.317,33.1757 l 13.73,-0.656 C 996.23,97.7422 979.562,79.6055 950.148,79.6055 c -28.437,0 -50.5,21.7385 -50.5,53.4375 0,31.711 22.063,53.437 50.5,53.437"
             inkscape:connector-curvature="0"
             id="path92"
             style="fill:#141419;fill-opacity:1;fill-rule:nonzero;stroke:none" /><path
             d="m 1044.46,90.0664 c 14.55,0 22.72,11.2776 22.72,27.1286 0,16.016 -8.17,27.129 -22.72,27.129 -14.38,0 -22.39,-11.113 -22.39,-27.129 0,-15.851 8.01,-27.1286 22.39,-27.1286 z m 0,-10.4609 c -20.91,0 -36.27,15.3633 -36.27,37.5895 0,22.227 15.36,37.743 36.27,37.743 21.08,0 36.61,-15.516 36.61,-37.743 0,-22.2262 -15.53,-37.5895 -36.61,-37.5895"
             inkscape:connector-curvature="0"
             id="path94"
             style="fill:#141419;fill-opacity:1;fill-rule:nonzero;stroke:none" /><path
             d="m 1178.82,154.938 c 18.62,0 25.16,-12.911 25.16,-29.083 l 0,-44.2847 -13.56,0 0,43.1447 c 0,11.922 -4.91,19.441 -15.85,19.441 -10.14,0 -18.31,-8.496 -18.31,-21.57 l 0,-41.0157 -13.56,0 0,43.1447 c 0,11.922 -4.91,19.441 -15.85,19.441 -10.13,0 -18.14,-8.496 -18.14,-21.57 l 0,-41.0157 -13.57,0 0,71.4137 13.57,0 0,-12.754 c 3.43,8.665 11.76,14.708 22.71,14.708 12.75,0 20.27,-6.2 23.37,-15.516 3.76,8.816 12.58,15.516 24.03,15.516"
             inkscape:connector-curvature="0"
             id="path96"
             style="fill:#141419;fill-opacity:1;fill-rule:nonzero;stroke:none" /><path
             d="m 1305.49,154.938 c 18.63,0 25.17,-12.911 25.17,-29.083 l 0,-44.2847 -13.56,0 0,43.1447 c 0,11.922 -4.91,19.441 -15.85,19.441 -10.14,0 -18.31,-8.496 -18.31,-21.57 l 0,-41.0157 -13.56,0 0,43.1447 c 0,11.922 -4.91,19.441 -15.85,19.441 -10.13,0 -18.14,-8.496 -18.14,-21.57 l 0,-41.0157 -13.57,0 0,71.4137 13.57,0 0,-12.754 c 3.43,8.665 11.76,14.708 22.71,14.708 12.75,0 20.27,-6.2 23.37,-15.516 3.76,8.816 12.58,15.516 24.02,15.516"
             inkscape:connector-curvature="0"
             id="path98"
             style="fill:#141419;fill-opacity:1;fill-rule:nonzero;stroke:none" /><path
             d="m 1396.55,152.984 13.56,0 0,-71.4137 -13.56,0 0,12.5781 c -3.43,-8.4961 -12.59,-14.5429 -23.37,-14.5429 -18.63,0 -25.5,12.2578 -25.5,28.9255 l 0,44.453 13.57,0 0,-43.144 c 0,-11.9338 5.23,-19.6095 16.51,-19.6095 10.62,0 18.79,8.4961 18.79,21.7305 l 0,41.023"
             inkscape:connector-curvature="0"
             id="path100"
             style="fill:#141419;fill-opacity:1;fill-rule:nonzero;stroke:none" /><path
             d="m 1442.33,81.5703 -13.57,0 0,71.4137 13.57,0 0,-12.754 c 3.42,8.665 13.07,14.708 23.69,14.708 18.63,0 26.15,-12.411 26.15,-29.083 l 0,-44.2847 -13.56,0 0,43.1447 c 0,11.922 -5.73,19.441 -17,19.441 -10.79,0 -19.28,-8.496 -19.28,-21.57 l 0,-41.0157"
             inkscape:connector-curvature="0"
             id="path102"
             style="fill:#141419;fill-opacity:1;fill-rule:nonzero;stroke:none" /><path
             d="m 1523.4,152.984 0,-71.4137 -13.56,0 0,71.4137 13.56,0 z m -13.89,31.536 14.05,0 0,-15.364 -14.05,0 0,15.364"
             inkscape:connector-curvature="0"
             id="path104"
             style="fill:#141419;fill-opacity:1;fill-rule:nonzero;stroke:none" /><path
             d="m 1573.9,154.938 c 20.92,0 32.2,-14.051 33.67,-31.211 l -11.93,-0.809 c -1.15,12.578 -8.67,21.074 -21.9,21.074 -13.4,0 -22.56,-10.293 -22.56,-26.797 0,-16.504 9.16,-26.8083 22.56,-26.8083 13.23,0 20.75,8.9961 21.9,21.5743 l 11.93,-1.145 c -1.47,-17.3238 -12.75,-31.2105 -33.67,-31.2105 -21.57,0 -36.6,14.875 -36.6,37.5895 0,22.715 15.03,37.743 36.6,37.743"
             inkscape:connector-curvature="0"
             id="path106"
             style="fill:#141419;fill-opacity:1;fill-rule:nonzero;stroke:none" /><path
             d="m 1665.92,116.863 -16.01,-3.429 c -11.28,-2.45 -18.47,-4.579 -18.47,-13.243 0,-6.0426 4.09,-10.6129 12.26,-10.6129 12.59,0 22.22,9.4727 22.22,23.8559 l 0,3.429 z M 1679,95.6211 c 0,-3.7578 2.12,-5.5547 5.56,-5.5547 1.63,0 4.25,0.4883 6.2,1.6289 l 0,-7.3515 c -2.45,-2.4532 -5.39,-4.25 -10.94,-4.25 -7.36,0 -12.59,5.5585 -13.4,14.0546 -3.93,-8.332 -14.06,-14.5429 -25.66,-14.5429 -13.89,0 -22.88,7.5195 -22.88,19.7773 0,13.5622 11.6,19.1212 28.76,22.5472 l 19.28,3.925 0,2.774 c 0,9.805 -5.71,15.851 -15.68,15.851 -10.3,0 -15.85,-6.046 -17.98,-14.375 l -12.09,1.629 c 2.78,13.399 13.4,23.204 30.23,23.204 17.98,0 28.6,-9.149 28.6,-27.286 l 0,-32.0309"
             inkscape:connector-curvature="0"
             id="path108"
             style="fill:#141419;fill-opacity:1;fill-rule:nonzero;stroke:none" /><path
             d="m 1703.04,143.18 -10.78,0 0,7.355 4.57,0.809 c 6.7,1.308 8.17,4.582 9.81,11.445 l 2.12,9.973 7.68,0 0,-19.778 20.1,0 0,-9.804 -20.1,0 0,-43.3089 c 0,-6.3789 2.62,-9.3164 8.83,-9.3164 4.58,0 9.31,1.9609 13.4,4.2461 l 0,-9.1485 c -5.23,-3.9257 -10.46,-6.0468 -18.31,-6.0468 -10.13,0 -17.32,4.7383 -17.32,18.6328 l 0,44.9417"
             inkscape:connector-curvature="0"
             id="path110"
             style="fill:#141419;fill-opacity:1;fill-rule:nonzero;stroke:none" /><path
             d="m 1764.18,152.984 0,-71.4137 -13.57,0 0,71.4137 13.57,0 z m -13.89,31.536 14.05,0 0,-15.364 -14.05,0 0,15.364"
             inkscape:connector-curvature="0"
             id="path112"
             style="fill:#141419;fill-opacity:1;fill-rule:nonzero;stroke:none" /><path
             d="m 1814.35,90.0664 c 14.54,0 22.72,11.2776 22.72,27.1286 0,16.016 -8.18,27.129 -22.72,27.129 -14.38,0 -22.39,-11.113 -22.39,-27.129 0,-15.851 8.01,-27.1286 22.39,-27.1286 z m 0,-10.4609 c -20.92,0 -36.28,15.3633 -36.28,37.5895 0,22.227 15.36,37.743 36.28,37.743 21.08,0 36.61,-15.516 36.61,-37.743 0,-22.2262 -15.53,-37.5895 -36.61,-37.5895"
             inkscape:connector-curvature="0"
             id="path114"
             style="fill:#141419;fill-opacity:1;fill-rule:nonzero;stroke:none" /><path
             d="m 1878.6,81.5703 -13.57,0 0,71.4137 13.57,0 0,-12.754 c 3.42,8.665 13.07,14.708 23.69,14.708 18.63,0 26.15,-12.411 26.15,-29.083 l 0,-44.2847 -13.57,0 0,43.1447 c 0,11.922 -5.72,19.441 -16.99,19.441 -10.79,0 -19.28,-8.496 -19.28,-21.57 l 0,-41.0157"
             inkscape:connector-curvature="0"
             id="path116"
             style="fill:#141419;fill-opacity:1;fill-rule:nonzero;stroke:none" /><path
             d="m 2019.97,116.863 -16.02,-3.429 c -11.27,-2.45 -18.46,-4.579 -18.46,-13.243 0,-6.0426 4.09,-10.6129 12.25,-10.6129 12.59,0 22.23,9.4727 22.23,23.8559 l 0,3.429 z m 13.07,-21.2419 c 0,-3.7578 2.13,-5.5547 5.56,-5.5547 1.63,0 4.25,0.4883 6.21,1.6289 l 0,-7.3515 c -2.45,-2.4532 -5.39,-4.25 -10.95,-4.25 -7.35,0 -12.58,5.5585 -13.39,14.0546 -3.93,-8.332 -14.07,-14.5429 -25.67,-14.5429 -13.89,0 -22.88,7.5195 -22.88,19.7773 0,13.5622 11.61,19.1212 28.77,22.5472 l 19.28,3.925 0,2.774 c 0,9.805 -5.72,15.851 -15.69,15.851 -10.29,0 -15.85,-6.046 -17.97,-14.375 l -12.09,1.629 c 2.77,13.399 13.39,23.204 30.23,23.204 17.97,0 28.59,-9.149 28.59,-27.286 l 0,-32.0309"
             inkscape:connector-curvature="0"
             id="path118"
             style="fill:#141419;fill-opacity:1;fill-rule:nonzero;stroke:none" /><path
             d="m 2069.02,81.5703 -13.56,0 0,71.4137 13.56,0 0,-12.754 c 3.43,8.665 13.08,14.708 23.69,14.708 18.63,0 26.15,-12.411 26.15,-29.083 l 0,-44.2847 -13.56,0 0,43.1447 c 0,11.922 -5.72,19.441 -17,19.441 -10.78,0 -19.28,-8.496 -19.28,-21.57 l 0,-41.0157"
             inkscape:connector-curvature="0"
             id="path120"
             style="fill:#141419;fill-opacity:1;fill-rule:nonzero;stroke:none" /><path
             d="m 2190.46,119.312 c 0,15.528 -9.81,24.68 -22.72,24.68 -14.05,0 -21.89,-10.461 -21.89,-26.797 0,-16.347 7.84,-26.8083 21.89,-26.8083 12.91,0 22.72,9.1602 22.72,24.8433 l 0,4.082 z m -0.17,-22.8706 c -3.26,-8.8281 -12.26,-16.8359 -25.65,-16.8359 -21.24,0 -32.69,16.5039 -32.69,37.5895 0,21.082 11.45,37.743 32.69,37.743 13.39,0 22.39,-8.165 25.65,-16.993 l 0,46.575 13.56,0 0,-102.9497 -13.56,0 0,14.8711"
             inkscape:connector-curvature="0"
             id="path122"
             style="fill:#141419;fill-opacity:1;fill-rule:nonzero;stroke:none" /><path
             d="m 2283.31,81.5703 0,91.1917 -37.43,0 0,11.758 89.56,0 0,-11.758 -38.08,0 0,-91.1917 -14.05,0"
             inkscape:connector-curvature="0"
             id="path124"
             style="fill:#141419;fill-opacity:1;fill-rule:nonzero;stroke:none" /><path
             d="m 2385.78,122.75 c -0.49,11.438 -6.86,21.895 -20.42,21.895 -12.91,0 -20.6,-10.125 -22.23,-21.895 l 42.65,0 z m 13.56,-17.156 c -3.59,-16.1838 -15.51,-25.9885 -33.33,-25.9885 -21.25,0 -36.77,14.3867 -36.77,36.6015 0,22.559 15.52,38.731 36.12,38.731 22.71,0 34.31,-16.172 34.31,-35.626 l 0,-5.39 -56.87,0 c 0.65,-13.887 10.62,-23.6915 23.37,-23.6915 11.93,0 18.95,5.7148 21.9,16.6715 l 11.27,-1.308"
             inkscape:connector-curvature="0"
             id="path126"
             style="fill:#141419;fill-opacity:1;fill-rule:nonzero;stroke:none" /><path
             d="m 2446.27,154.938 c 20.91,0 32.18,-14.051 33.66,-31.211 l -11.94,-0.809 c -1.14,12.578 -8.65,21.074 -21.89,21.074 -13.4,0 -22.55,-10.293 -22.55,-26.797 0,-16.504 9.15,-26.8083 22.55,-26.8083 13.24,0 20.75,8.9961 21.89,21.5743 l 11.94,-1.145 c -1.48,-17.3238 -12.75,-31.2105 -33.66,-31.2105 -21.58,0 -36.62,14.875 -36.62,37.5895 0,22.715 15.04,37.743 36.62,37.743"
             inkscape:connector-curvature="0"
             id="path128"
             style="fill:#141419;fill-opacity:1;fill-rule:nonzero;stroke:none" /><path
             d="m 2507.4,81.5703 -13.57,0 0,102.9497 13.57,0 0,-44.29 c 3.43,8.665 13.08,14.708 23.69,14.708 18.63,0 26.15,-12.411 26.15,-29.083 l 0,-44.2847 -13.56,0 0,43.1447 c 0,11.922 -5.72,19.441 -17,19.441 -10.78,0 -19.28,-8.496 -19.28,-21.57 l 0,-41.0157"
             inkscape:connector-curvature="0"
             id="path130"
             style="fill:#141419;fill-opacity:1;fill-rule:nonzero;stroke:none" /><path
             d="m 2588.47,81.5703 -13.56,0 0,71.4137 13.56,0 0,-12.754 c 3.43,8.665 13.08,14.708 23.69,14.708 18.64,0 26.16,-12.411 26.16,-29.083 l 0,-44.2847 -13.57,0 0,43.1447 c 0,11.922 -5.72,19.441 -17,19.441 -10.78,0 -19.28,-8.496 -19.28,-21.57 l 0,-41.0157"
             inkscape:connector-curvature="0"
             id="path132"
             style="fill:#141419;fill-opacity:1;fill-rule:nonzero;stroke:none" /><path
             d="m 2687.68,90.0664 c 14.55,0 22.72,11.2776 22.72,27.1286 0,16.016 -8.17,27.129 -22.72,27.129 -14.37,0 -22.38,-11.113 -22.38,-27.129 0,-15.851 8.01,-27.1286 22.38,-27.1286 z m 0,-10.4609 c -20.92,0 -36.28,15.3633 -36.28,37.5895 0,22.227 15.36,37.743 36.28,37.743 21.09,0 36.61,-15.516 36.61,-37.743 0,-22.2262 -15.52,-37.5895 -36.61,-37.5895"
             inkscape:connector-curvature="0"
             id="path134"
             style="fill:#141419;fill-opacity:1;fill-rule:nonzero;stroke:none" /><path
             d="m 2738.37,81.5703 13.5586,0 0,102.949 -13.5586,0 0,-102.949 z"
             inkscape:connector-curvature="0"
             id="path136"
             style="fill:#141419;fill-opacity:1;fill-rule:nonzero;stroke:none" /><path
             d="m 2802.11,90.0664 c 14.55,0 22.71,11.2776 22.71,27.1286 0,16.016 -8.16,27.129 -22.71,27.129 -14.38,0 -22.39,-11.113 -22.39,-27.129 0,-15.851 8.01,-27.1286 22.39,-27.1286 z m 0,-10.4609 c -20.92,0 -36.28,15.3633 -36.28,37.5895 0,22.227 15.36,37.743 36.28,37.743 21.08,0 36.61,-15.516 36.61,-37.743 0,-22.2262 -15.53,-37.5895 -36.61,-37.5895"
             inkscape:connector-curvature="0"
             id="path138"
             style="fill:#141419;fill-opacity:1;fill-rule:nonzero;stroke:none" /><path
             d="m 2881.55,146.121 c -9.97,0 -16.18,-5.559 -16.18,-15.695 0,-9.805 6.21,-15.36 16.18,-15.36 10.14,0 16.35,5.555 16.35,15.36 0,10.136 -6.21,15.695 -16.35,15.695 z m -1.47,-84.9804 c 16.34,0 28.11,3.9258 28.11,14.2188 0,6.5312 -5.39,8.8281 -13.73,8.8281 l -23.04,0 c -7.35,0 -13.73,-2.4609 -13.73,-10.1367 0,-8.9844 9.15,-12.9102 22.39,-12.9102 z m 1.3,45.2614 c -5.88,0 -11.27,0.989 -15.68,2.95 -2.45,-1.473 -4.74,-3.758 -4.74,-7.032 0,-3.9255 2.45,-6.2106 8.66,-6.2106 l 27.95,0 c 15.52,0 23.7,-8.1719 23.7,-19.2852 0,-17.8125 -19.94,-24.668 -41.19,-24.668 -19.28,0 -35.3,6.043 -35.3,19.2774 0,8.1719 5.88,13.3984 14.71,15.0391 -6.53,2.1171 -9.48,6.8632 -9.48,12.2539 0,6.2114 4.41,10.6254 10.79,13.3984 -5.89,4.25 -9.32,10.625 -9.32,18.469 0,15.039 12.42,24.344 29.9,24.344 9,0 17.01,-2.774 22.4,-7.352 3.76,5.723 10.45,9.812 18.14,9.812 l 0,-11.765 c -4.75,0 -10.14,-1.153 -13.73,-2.949 2.12,-3.43 3.43,-7.512 3.43,-12.09 0,-14.875 -12.58,-24.192 -30.24,-24.192"
             inkscape:connector-curvature="0"
             id="path140"
             style="fill:#141419;fill-opacity:1;fill-rule:nonzero;stroke:none" /><path
             d="m 2941.54,54.1094 11.6,27.6172 -30.07,71.2574 14.22,0 22.72,-54.9098 0.65,0 21.89,54.9098 13.41,0 -41.18,-98.8746 -13.24,0"
             inkscape:connector-curvature="0"
             id="path142"
             style="fill:#141419;fill-opacity:1;fill-rule:nonzero;stroke:none" /></g></g></g></g></svg>